<svg xmlns="http://www.w3.org/2000/svg" xmlns:xlink="http://www.w3.org/1999/xlink"><symbol viewBox="0 0 15 15" fill="none" id="icon-bin" xmlns="http://www.w3.org/2000/svg"><path d="M4.5 3V1.5a1 1 0 0 1 1-1h4a1 1 0 0 1 1 1V3M0 3.5h15m-13.5 0v10a1 1 0 0 0 1 1h10a1 1 0 0 0 1-1v-10M7.5 7v5m-3-3v3m6-3v3"/></symbol><symbol fill="none" viewBox="0 0 25 25" id="icon-cart" xmlns="http://www.w3.org/2000/svg"><path d="m.833.834 1 3.333m0 0 4 13.334h18.334v-10a3.333 3.333 0 0 0-3.334-3.334h-19Zm19 20a1.667 1.667 0 1 1 0-3.333 1.667 1.667 0 0 1 0 3.333ZM7.5 22.501a1.667 1.667 0 1 1 3.333 0 1.667 1.667 0 0 1-3.333 0Z" stroke="#091F35" stroke-width="1.5"/></symbol><symbol fill="none" viewBox="0 0 36 22" id="icon-cart-add" xmlns="http://www.w3.org/2000/svg"><path fill="#091F35" d="M4.313 11.6V15h1.321v-3.4H9v-1.234H5.634V7H4.313v3.366H1v1.233h3.313Z"/><path d="m11.7.7.84 2.8m0 0 3.36 11.2h15.4V6.3a2.8 2.8 0 0 0-2.8-2.8H12.54ZM28.5 20.3a1.4 1.4 0 1 1 0-2.8 1.4 1.4 0 0 1 0 2.8Zm-11.2-1.4a1.4 1.4 0 1 1 2.8 0 1.4 1.4 0 0 1-2.8 0Z" stroke="#091F35" stroke-width="1.5"/></symbol><symbol fill="none" viewBox="0 0 33 33" id="icon-facebook" xmlns="http://www.w3.org/2000/svg"><g clip-path="url(#a)" fill="#091F35"><path d="M18.527 32.358h-4.353V21.699h-3.64V17.37h3.64v-1.93c0-2.266.176-4.122 1.398-5.379 1.202-1.236 2.703-1.62 4.065-1.62 1.622 0 3.21.183 3.21.183v3.873s-1.784.025-2.646.025c-.863 0-1.674.616-1.674 1.817v3.031h4.174l-.543 4.33h-3.631v10.658Z"/><path d="M16.5 0C25.613 0 33 7.387 33 16.5S25.613 33 16.5 33 0 25.613 0 16.5 7.387 0 16.5 0Zm0 32.03c8.577 0 15.53-6.953 15.53-15.53C32.03 7.923 25.076.97 16.5.97 7.923.97.97 7.924.97 16.5c0 8.577 6.953 15.53 15.53 15.53Z"/></g><defs><clipPath id="a"><path fill="#fff" d="M0 0h33v33H0z"/></clipPath></defs></symbol><symbol fill="none" viewBox="0 0 33 33" id="icon-instagram" xmlns="http://www.w3.org/2000/svg"><g fill="#091F35"><path d="M25.846 5.5a1.65 1.65 0 1 1 .009 3.299 1.65 1.65 0 0 1-.01-3.299ZM16.479 7.7a8.8 8.8 0 1 1 .041 17.601 8.8 8.8 0 0 1-.041-17.6Zm.04 16.5a7.7 7.7 0 1 0-.038-15.4 7.7 7.7 0 0 0 .038 15.4Z"/><path d="M33 16.335v.33C33 31.815 31.814 33 16.665 33h-.33C1.185 33 0 31.814 0 16.665v-.33C0 1.185 1.186 0 16.335 0h.33C31.815 0 33 1.186 33 16.335Zm-1.1 1.538v-2.746C31.9 2.118 30.882 1.1 17.873 1.1h-2.746C2.118 1.1 1.1 2.118 1.1 15.127v2.746C1.1 30.882 2.118 31.9 15.127 31.9h2.746c13.009 0 14.027-1.018 14.027-14.027Z"/></g></symbol><symbol fill="none" viewBox="0 0 15 15" id="icon-minus" xmlns="http://www.w3.org/2000/svg"><path d="M1 7.5h13"/></symbol><symbol fill="none" viewBox="0 0 15 15" id="icon-plus" xmlns="http://www.w3.org/2000/svg"><path d="M7.5 1v13M1 7.5h13"/></symbol><symbol viewBox="0 0 14 14" id="icon-star" xmlns="http://www.w3.org/2000/svg"><path d="M6.194 1.101a.9.9 0 0 1 1.614 0l1.521 3.082 3.401.495a.9.9 0 0 1 .5 1.535l-2.462 2.399.581 3.387a.9.9 0 0 1-1.306.949l-3.042-1.6-3.042 1.6a.9.9 0 0 1-1.306-.949l.58-3.387-2.46-2.4a.9.9 0 0 1 .499-1.534l3.4-.495 1.522-3.082Z"/></symbol><symbol viewBox="0 0 10 17" id="icon-tooltip" xmlns="http://www.w3.org/2000/svg"><path d="M3.505 12.7c0-.529.04-1.024.12-1.486a4.34 4.34 0 0 1 .485-1.32c.198-.396.429-.715.693-.957.27-.25.564-.491.88-.726.322-.242.66-.55 1.012-.924.293-.323.487-.649.583-.979.102-.33.154-.686.154-1.067 0-.279-.033-.539-.1-.78a1.56 1.56 0 0 0-.33-.628 1.854 1.854 0 0 0-.89-.616 3.553 3.553 0 0 0-2.134-.044c-.316.095-.58.242-.792.44-.228.19-.396.43-.506.715-.103.279-.15.583-.143.913H.117c.058-.69.234-1.335.528-1.936a3.966 3.966 0 0 1 1.188-1.463 4.27 4.27 0 0 1 1.452-.748A5.46 5.46 0 0 1 4.913.841c.777 0 1.51.121 2.2.363A3.93 3.93 0 0 1 8.85 2.381c.337.381.59.818.759 1.31.176.483.264.985.264 1.506 0 .697-.15 1.342-.451 1.936A6.69 6.69 0 0 1 8.29 8.761a9.394 9.394 0 0 1-.737.704c-.25.205-.48.407-.693.605a2.929 2.929 0 0 0-.528.65c-.198.336-.312.64-.341.912-.03.264-.044.62-.044 1.067H3.505Zm.01 4.3v-2.662h2.432V17H3.516Z"/></symbol><symbol fill="none" viewBox="0 0 42 29" id="icon-youTube" xmlns="http://www.w3.org/2000/svg"><g fill="#091F35"><path d="M39.836 2.07C41.75 3.99 42 7.04 42 14.5c0 7.461-.25 10.51-2.164 12.43C37.923 28.849 35.93 29 21 29c-14.93 0-16.922-.151-18.836-2.07C.25 25.01 0 21.96 0 14.5 0 7.039.25 3.99 2.164 2.07 4.078.151 6.07 0 21 0c14.93 0 16.922.151 18.836 2.07Zm-.92 24.207c1.12-1.125 1.979-1.962 1.979-11.777s-.852-10.633-1.97-11.807C37.807 1.52 36.405 1.115 21 1.115c-14.424 0-16.807.405-17.925 1.578C1.957 3.867 1.105 4.81 1.105 14.5c0 9.69.784 10.54 1.902 11.714 1.118 1.174 2.337 1.67 17.993 1.67 15.656 0 16.772-.458 17.915-1.607Z"/><path d="M17.42 20.733V8.271l10.739 6.182-10.74 6.28Z"/></g></symbol><symbol fill="none" viewBox="0 0 22 15" id="icon-youTube-small" xmlns="http://www.w3.org/2000/svg"><path d="M20.866 1.07C21.87 2.064 22 3.64 22 7.5s-.131 5.437-1.134 6.43C19.864 14.921 18.82 15 11 15s-8.864-.078-9.867-1.07C.131 12.936 0 11.36 0 7.5s.131-5.437 1.133-6.43C2.136.079 3.18 0 11 0s8.864.078 9.866 1.07ZM9.124 10.924l5.626-3.248-5.626-3.198v6.446Z" fill="#fff"/></symbol></svg>