<svg width="25" height="25" viewBox="0 0 25 25" fill="none" xmlns="http://www.w3.org/2000/svg">
<g id="cart">
<path id="Vector" d="M0.833252 0.833984L1.83325 4.16732M1.83325 4.16732L5.83325 17.5006H24.1666V7.50065C24.1666 5.6597 22.6742 4.16732 20.8332 4.16732H1.83325ZM20.8332 24.1673C19.9128 24.1673 19.1666 23.4211 19.1666 22.5006C19.1666 21.5802 19.9128 20.834 20.8332 20.834C21.7537 20.834 22.4999 21.5802 22.4999 22.5006C22.4999 23.4211 21.7537 24.1673 20.8332 24.1673ZM7.49992 22.5006C7.49992 21.5802 8.24611 20.834 9.16658 20.834C10.0871 20.834 10.8333 21.5802 10.8333 22.5006C10.8333 23.4211 10.0871 24.1673 9.16658 24.1673C8.24611 24.1673 7.49992 23.4211 7.49992 22.5006Z" stroke="#091F35" stroke-width="1.5"/>
</g>
</svg>
