<svg width="36" height="22" viewBox="0 0 36 22" xmlns="http://www.w3.org/2000/svg" fill="none">
<path fill="#091F35" d="M4.31277 11.5991V15H5.63436V11.5991H9V10.3656H5.63436V7H4.31277V10.3656H1V11.5991H4.31277Z"/>
<path d="M11.7 0.699951L12.54 3.49995M12.54 3.49995L15.9 14.6999H31.2999V6.29995C31.2999 4.75355 30.0463 3.49995 28.4999 3.49995H12.54ZM28.4999 20.2999C27.7267 20.2999 27.0999 19.6731 27.0999 18.8999C27.0999 18.1268 27.7267 17.4999 28.4999 17.4999C29.2731 17.4999 29.8999 18.1268 29.8999 18.8999C29.8999 19.6731 29.2731 20.2999 28.4999 20.2999ZM17.3 18.8999C17.3 18.1268 17.9268 17.4999 18.6999 17.4999C19.4731 17.4999 20.0999 18.1268 20.0999 18.8999C20.0999 19.6731 19.4731 20.2999 18.6999 20.2999C17.9268 20.2999 17.3 19.6731 17.3 18.8999Z" stroke="#091F35" stroke-width="1.5"/>
</svg>
