<svg width="33" height="33" viewBox="0 0 33 33" fill="none" xmlns="http://www.w3.org/2000/svg">
<g id="Ultralight-S" clip-path="url(#clip0_2202_1676)">
<path id="Vector" d="M18.527 32.3579H14.1738V21.6993H10.5344V17.3704H14.1738C14.1738 17.3704 14.1738 16.0946 14.1738 15.4394C14.1738 13.174 14.3495 11.3184 15.5718 10.061C16.7736 8.82471 18.2745 8.44043 19.6374 8.44043C21.2593 8.44043 22.8476 8.62407 22.8476 8.62407V12.4972C22.8476 12.4972 21.0627 12.5216 20.2006 12.5216C19.3385 12.5216 18.527 13.138 18.527 14.3389C18.527 14.9529 18.527 17.3704 18.527 17.3704H22.701L22.158 21.6993H18.527V32.3579Z" fill="#091F35"/>
<path id="circle_32_" d="M16.5 0C25.6127 0 33 7.38728 33 16.5C33 25.6127 25.6127 33 16.5 33C7.38731 33 0 25.6127 0 16.5C0 7.38728 7.38731 0 16.5 0ZM16.5 32.0294C25.0767 32.0294 32.0294 25.0766 32.0294 16.5C32.0294 7.92333 25.0767 0.970589 16.5 0.970589C7.92336 0.970589 0.970589 7.92333 0.970589 16.5C0.970589 25.0766 7.92336 32.0294 16.5 32.0294Z" fill="#091F35"/>
</g>
<defs>
<clipPath id="clip0_2202_1676">
<rect width="33" height="33" fill="white"/>
</clipPath>
</defs>
</svg>
