<svg width="33" height="33" viewBox="0 0 33 33" fill="none" xmlns="http://www.w3.org/2000/svg">
<g id="Ultralight-S">
<path id="Vector" d="M25.8457 5.5C26.7574 5.4978 27.4975 6.23439 27.4997 7.14601C27.5019 8.05765 26.7653 8.7978 25.8537 8.79998C24.942 8.80218 24.2019 8.06559 24.1997 7.15398C24.1975 6.24236 24.9341 5.50221 25.8457 5.5Z" fill="#091F35"/>
<path id="Vector_2" d="M16.479 7.70022C21.3387 7.68854 25.2885 11.6194 25.3002 16.479C25.3119 21.3386 21.3811 25.2884 16.5214 25.3001C11.6617 25.3119 7.71196 21.3811 7.70022 16.5214C7.68854 11.6617 11.6194 7.7119 16.479 7.70022ZM16.5187 24.2001C20.771 24.1899 24.2104 20.7338 24.2002 16.4817C24.1899 12.2294 20.7339 8.79001 16.4817 8.80022C12.2295 8.81049 8.79001 12.2665 8.80022 16.5187C8.81049 20.771 12.2665 24.2104 16.5187 24.2001Z" fill="#091F35"/>
<path id="Vector_3" d="M33 16.335V16.665C33 31.8144 31.8144 33 16.665 33H16.335C1.18563 33 0 31.8144 0 16.665V16.335C0 1.1856 1.18563 0 16.335 0H16.665C31.8144 5.02283e-08 33 1.1856 33 16.335ZM31.9 17.8729V15.127C31.9 2.11809 30.8819 1.1 17.873 1.1H15.1271C2.11812 1.1 1.1 2.11809 1.1 15.127V17.8729C1.1 30.8819 2.11812 31.9 15.1271 31.9H17.873C30.8819 31.9 31.9 30.8819 31.9 17.8729Z" fill="#091F35"/>
</g>
</svg>
