<svg viewBox="0 0 14 14" xmlns="http://www.w3.org/2000/svg">
<path d="M6.194 1.101C6.26834 0.950441 6.38331 0.823678 6.52592 0.735043C6.66853 0.646408 6.83309 0.599436 7.001 0.599436C7.16891 0.599436 7.33348 0.646408 7.47609 0.735043C7.6187 0.823678 7.73367 0.950441 7.808 1.101L9.329 4.183L12.73 4.678C12.8963 4.70198 13.0525 4.77201 13.181 4.88018C13.3096 4.98834 13.4052 5.13031 13.4573 5.29004C13.5093 5.44976 13.5156 5.62086 13.4754 5.78397C13.4353 5.94708 13.3502 6.0957 13.23 6.213L10.768 8.612L11.349 11.999C11.3775 12.1646 11.359 12.3348 11.2958 12.4904C11.2325 12.646 11.127 12.7808 10.9911 12.8796C10.8552 12.9783 10.6944 13.0371 10.5268 13.0492C10.3593 13.0612 10.1917 13.0262 10.043 12.948L7.001 11.348L3.959 12.948C3.81034 13.0262 3.64275 13.0612 3.4752 13.0492C3.30765 13.0371 3.14683 12.9783 3.01094 12.8796C2.87504 12.7808 2.76949 12.646 2.70624 12.4904C2.64298 12.3348 2.62454 12.1646 2.653 11.999L3.233 8.612L0.773004 6.212C0.653073 6.09472 0.568305 5.94626 0.528262 5.78337C0.48822 5.62048 0.494497 5.44964 0.546386 5.29012C0.598275 5.13061 0.693711 4.98877 0.821924 4.88061C0.950138 4.77245 1.10603 4.70227 1.272 4.678L4.672 4.183L6.194 1.101Z"/>
</svg>
