<svg width="42" height="29" viewBox="0 0 42 29" fill="none" xmlns="http://www.w3.org/2000/svg">
<g id="Ultralight-S">
<path id="Vector" d="M39.8361 2.07037C41.7497 3.98941 42 7.03883 42 14.5C42 21.9612 41.7497 25.0106 39.8361 26.9295C37.9225 28.8485 35.9296 29 21 29C6.07038 29 4.07754 28.8485 2.16389 26.9295C0.250341 25.0106 0 21.9612 0 14.5C0 7.03883 0.250341 3.98941 2.16389 2.07037C4.07754 0.151387 6.07038 0 21 0C35.9296 0 37.9225 0.151387 39.8361 2.07037ZM38.9154 26.2772C40.0356 25.152 40.8947 24.3154 40.8947 14.5C40.8947 4.68455 40.0433 3.86715 38.9253 2.69348C37.8074 1.51984 36.4043 1.11539 21 1.11539C6.57611 1.11539 4.19256 1.51984 3.07466 2.69348C1.95674 3.86715 1.10526 4.81036 1.10526 14.5C1.10526 24.1896 1.88894 25.0406 3.00696 26.2143C4.12482 27.3878 5.34443 27.8846 21 27.8846C36.6555 27.8846 37.7721 27.4257 38.9154 26.2772Z" fill="#091F35"/>
<path id="Vector_2" d="M17.4194 20.7334V8.27148L28.1588 14.4533L17.4194 20.7334Z" fill="#091F35"/>
</g>
</svg>
