<svg width="22" height="15" viewBox="0 0 22 15" fill="none" xmlns="http://www.w3.org/2000/svg">
<g id="YouYube">
<path id="Vector" d="M20.8665 1.07091C21.8689 2.06349 22 3.64076 22 7.49999C22 11.3592 21.8689 12.9365 20.8665 13.9291C19.8641 14.9217 18.8203 15 11 15C3.17971 15 2.13585 14.9217 1.13348 13.9291C0.131131 12.9365 0 11.3592 0 7.49999C0 3.64076 0.131131 2.06349 1.13348 1.07091C2.13585 0.0783199 3.17971 0 11 0C18.8203 -2.63435e-08 19.8641 0.0783199 20.8665 1.07091ZM9.12434 10.923L14.7497 7.67467L9.12434 4.47719V10.923Z" fill="white"/>
</g>
</svg>
