<svg width="139" height="23" viewBox="0 0 139 23" fill="none" xmlns="http://www.w3.org/2000/svg">
<path d="M7.40239 22.9961V15.9785L0 19.4873L7.40239 22.9961Z" fill="#4AC7E9"/>
<path d="M7.40253 0L0.00366211 3.50881L7.40253 7.01763V0Z" fill="#D958A0"/>
<path d="M0.00352301 3.50781H0V19.4834L0.00352301 19.4869L7.40239 15.9781V15.9675V7.01663L0.00352301 3.50781Z" fill="#5F6DB3"/>
<path d="M7.4032 15.9684L14.8091 12.541V10.5299L7.4032 7.01758V15.9684Z" fill="#5F6DB3"/>
<path d="M7.4032 0V7.01763L14.8091 10.53V3.50881L7.4032 0Z" fill="#D958A0"/>
<path d="M38.9385 10.2832C35.5439 10.2832 32.5513 12.8219 32.5513 16.7272C32.5513 20.0236 35.1774 22.9978 38.9244 22.9978C42.6361 22.9978 45.3574 20.1228 45.3574 16.6458C45.3539 13.1582 42.6326 10.2832 38.9385 10.2832ZM38.9702 20.8628C36.538 20.8628 34.8883 18.9331 34.8883 16.6493C34.8883 14.4647 36.5063 12.358 38.9561 12.4218C41.5011 12.4855 43.0027 14.5426 43.0027 16.6493C43.0027 18.7383 41.5011 20.8628 38.9702 20.8628Z" fill="#091F35"/>
<path d="M26.4278 10.5234H22.9028V22.7742H25.1306V18.0757H26.5899C29.2618 18.0757 30.7 16.663 30.7 14.2659C30.7 11.9362 29.0362 10.5234 26.4278 10.5234ZM26.3467 16.0044H25.1306V12.5983H26.3467C27.5135 12.5983 28.3806 13.0834 28.3806 14.2872C28.3806 15.5229 27.6439 16.0044 26.3467 16.0044Z" fill="#091F35"/>
<path d="M53.7345 12.4179C55.1162 12.4497 56.1067 13.126 56.7976 14.0253H59.4836C58.4896 11.8549 56.4099 10.2793 53.7239 10.2793C50.3293 10.2793 47.3367 12.818 47.3367 16.7233C47.3367 20.0197 49.9592 22.9939 53.7098 22.9939C56.3782 22.9939 58.398 21.4997 59.392 19.3611H56.7342C56.0433 20.2463 55.1198 20.8588 53.7556 20.8588C51.3234 20.8588 49.6702 18.9292 49.6702 16.6454C49.6702 14.4608 51.2881 12.3541 53.7345 12.4179Z" fill="#091F35"/>
<path d="M66.4025 10.2832C63.7306 10.2832 61.7566 11.7774 60.7661 13.9159H63.4204C64.0161 13.0166 65.0877 12.4218 66.3496 12.4218C68.3306 12.4218 69.5926 13.6646 69.9451 15.527H64.3827V17.5345H69.9803C69.6948 19.4359 68.4575 20.8628 66.2051 20.8628C64.8762 20.8628 63.9985 20.1546 63.3111 19.2553H60.6216C61.4358 21.3797 63.5367 23.0013 66.2227 23.0013C69.6172 23.0013 72.3879 20.4627 72.3879 16.5537C72.3879 13.2574 70.1425 10.2832 66.4025 10.2832Z" fill="#091F35"/>
<path d="M105.116 12.4179C106.495 12.4497 107.485 13.126 108.172 14.0253H110.862C109.868 11.8549 107.788 10.2793 105.099 10.2793C101.704 10.2793 98.7114 12.818 98.7114 16.7233C98.7114 20.0197 101.338 22.9939 105.085 22.9939C107.756 22.9939 109.773 21.4997 110.767 19.3611H108.109C107.422 20.2463 106.495 20.8588 105.13 20.8588C102.698 20.8588 101.048 18.9292 101.048 16.6454C101.052 14.4608 102.666 12.3541 105.116 12.4179Z" fill="#091F35"/>
<path d="M123.735 22.7742H130.281V20.6038H125.977V17.7252H130.09V15.668H125.977V12.5947H130.281V10.5234H123.735V22.7742Z" fill="#091F35"/>
<path d="M80.939 10.5231L77.132 15.8271V10.5231H74.8091V22.7739H77.132V17.4027L80.9249 22.7739C83.5333 22.7597 83.5686 22.7739 83.5827 22.7739L79.0214 16.5671L83.5827 10.5196C80.9531 10.5373 80.9531 10.5054 80.939 10.5231Z" fill="#091F35"/>
<path d="M132.184 10.5234V12.5947H134.436V22.7742H136.678V12.5947H139.001V10.5234H132.184Z" fill="#091F35"/>
<path d="M119.174 16.0858V16.0363C120.009 15.6503 120.517 14.751 120.517 13.7702C120.517 12.0176 119.192 10.5234 116.417 10.5234H113.266V22.7742H116.625C119.333 22.7742 121.236 21.5208 121.236 19.06C121.236 17.6437 120.422 16.4222 119.174 16.0858ZM115.586 12.5947H116.389C117.655 12.5947 118.279 13.0798 118.279 13.9791C118.279 14.8643 117.538 15.2963 116.372 15.2963H115.586V12.5947ZM116.706 20.6038H115.586V17.357H116.724C118.243 17.357 118.998 17.9341 118.998 19.014C118.998 20.0939 118.212 20.6038 116.706 20.6038Z" fill="#091F35"/>
<path d="M90.3916 10.2832C87.0006 10.2832 84.0044 12.8219 84.0044 16.7272C84.0044 20.0236 86.6269 22.9978 90.374 22.9978C94.0857 22.9978 96.807 20.1228 96.807 16.6458C96.8105 13.1582 94.0893 10.2832 90.3916 10.2832ZM90.4233 20.8628C87.9911 20.8628 86.3379 18.9331 86.3379 16.6493C86.3379 14.4647 87.9594 12.358 90.4057 12.4218C92.9507 12.4855 94.4559 14.5426 94.4559 16.6493C94.4594 18.7383 92.9542 20.8628 90.4233 20.8628Z" fill="#091F35"/>
</svg>
